<svg width="181" height="180" viewBox="0 0 181 180" fill="none" xmlns="http://www.w3.org/2000/svg">
<mask id="path-1-inside-1_223_16" fill="white">
<path d="M11 57C11 51.4772 15.4772 47 21 47H137C142.523 47 147 51.4772 147 57V117C147 136.33 131.33 152 112 152H46C26.67 152 11 136.33 11 117V57Z"/>
</mask>
<path d="M11 57C11 51.4772 15.4772 47 21 47H137C142.523 47 147 51.4772 147 57V117C147 136.33 131.33 152 112 152H46C26.67 152 11 136.33 11 117V57Z" stroke="#C8872A" stroke-width="30" mask="url(#path-1-inside-1_223_16)"/>
<mask id="path-2-inside-2_223_16" fill="white">
<path d="M136 127C147.935 127 159.381 122.786 167.82 115.284C176.259 107.783 181 97.6087 181 87C181 76.3913 176.259 66.2172 167.82 58.7157C159.381 51.2143 147.935 47 136 47L136 87L136 127Z"/>
</mask>
<path d="M136 127C147.935 127 159.381 122.786 167.82 115.284C176.259 107.783 181 97.6087 181 87C181 76.3913 176.259 66.2172 167.82 58.7157C159.381 51.2143 147.935 47 136 47L136 87L136 127Z" stroke="#C8872A" stroke-width="30" mask="url(#path-2-inside-2_223_16)"/>
<rect x="41" width="10" height="30" rx="5" fill="#C8872A"/>
<rect x="74" width="10" height="30" rx="5" fill="#C8872A"/>
<rect x="107" width="10" height="30" rx="5" fill="#C8872A"/>
</svg>
